<svg style="display:none" xmlns="http://www.w3.org/2000/svg" xmlns:xlink="http://www.w3.org/1999/xlink" version="1.1">
	<symbol id="search" xmlns="http://www.w3.org/2000/svg" viewBox="0 -960 960 960" fill="currentColor"><path d="M784-120 532-372q-30 24-69 38t-83 14q-109 0-184.5-75.5T120-580q0-109 75.5-184.5T380-840q109 0 184.5 75.5T640-580q0 44-14 83t-38 69l252 252-56 56ZM380-400q75 0 127.5-52.5T560-580q0-75-52.5-127.5T380-760q-75 0-127.5 52.5T200-580q0 75 52.5 127.5T380-400Z"/></symbol>
	<symbol id="shopping_bag" xmlns="http://www.w3.org/2000/svg" viewBox="0 -960 960 960" fill="currentColor"><path d="M240-80q-33 0-56.5-23.5T160-160v-480q0-33 23.5-56.5T240-720h80q0-66 47-113t113-47q66 0 113 47t47 113h80q33 0 56.5 23.5T800-640v480q0 33-23.5 56.5T720-80H240Zm0-80h480v-480h-80v80q0 17-11.5 28.5T600-520q-17 0-28.5-11.5T560-560v-80H400v80q0 17-11.5 28.5T360-520q-17 0-28.5-11.5T320-560v-80h-80v480Zm160-560h160q0-33-23.5-56.5T480-800q-33 0-56.5 23.5T400-720ZM240-160v-480 480Z"/></symbol>
	<symbol id="menu" xmlns="http://www.w3.org/2000/svg" viewBox="0 -960 960 960" fill="currentColor"><path d="M120-240v-80h720v80H120Zm0-200v-80h720v80H120Zm0-200v-80h720v80H120Z"/></symbol>
	<symbol id="account_circle" xmlns="http://www.w3.org/2000/svg" viewBox="0 -960 960 960" fill="currentColor"><path d="M234-276q51-39 114-61.5T480-360q69 0 132 22.5T726-276q35-41 54.5-93T800-480q0-133-93.5-226.5T480-800q-133 0-226.5 93.5T160-480q0 59 19.5 111t54.5 93Zm246-164q-59 0-99.5-40.5T340-580q0-59 40.5-99.5T480-720q59 0 99.5 40.5T620-580q0 59-40.5 99.5T480-440Zm0 360q-83 0-156-31.5T197-197q-54-54-85.5-127T80-480q0-83 31.5-156T197-763q54-54 127-85.5T480-880q83 0 156 31.5T763-763q54 54 85.5 127T880-480q0 83-31.5 156T763-197q-54 54-127 85.5T480-80Zm0-80q53 0 100-15.5t86-44.5q-39-29-86-44.5T480-280q-53 0-100 15.5T294-220q39 29 86 44.5T480-160Zm0-360q26 0 43-17t17-43q0-26-17-43t-43-17q-26 0-43 17t-17 43q0 26 17 43t43 17Zm0-60Zm0 360Z"/></symbol>
	<symbol id="close" xmlns="http://www.w3.org/2000/svg" viewBox="0 -960 960 960" fill="currentColor"><path d="m256-200-56-56 224-224-224-224 56-56 224 224 224-224 56 56-224 224 224 224-56 56-224-224-224 224Z"/></symbol>
	<symbol id="chevron-right" xmlns="http://www.w3.org/2000/svg" viewBox="0 -960 960 960" fill="currentColor"><path d="M504-480 320-664l56-56 240 240-240 240-56-56 184-184Z"/></symbol>
	<symbol id="favorite" xmlns="http://www.w3.org/2000/svg" viewBox="0 -960 960 960" fill="currentColor"><path d="m480-120-58-52q-101-91-167-157T150-447.5Q111-500 95.5-544T80-634q0-94 63-157t157-63q52 0 99 22t81 62q34-40 81-62t99-22q94 0 157 63t63 157q0 46-15.5 90T810-447.5Q771-395 705-329T538-172l-58 52Zm0-108q96-86 158-147.5t98-107q36-45.5 50-81t14-70.5q0-60-40-100t-100-40q-47 0-87 26.5T518-680h-76q-15-41-55-67.5T300-774q-60 0-100 40t-40 100q0 35 14 70.5t50 81q36 45.5 98 107T480-228Zm0-273Z"/></symbol>
	<symbol id="home_pin" xmlns="http://www.w3.org/2000/svg" viewBox="0 -960 960 960" fill="currentColor"><path d="M360-440h80v-110h80v110h80v-190l-120-80-120 80v190Zm120 254q122-112 181-203.5T720-552q0-109-69.5-178.5T480-800q-101 0-170.5 69.5T240-552q0 71 59 162.5T480-186Zm0 106Q319-217 239.5-334.5T160-552q0-150 96.5-239T480-880q127 0 223.5 89T800-552q0 100-79.5 217.5T480-80Zm0-480Z"/></symbol>
	<symbol id="call" xmlns="http://www.w3.org/2000/svg" viewBox="0 -960 960 960" fill="currentColor"><path d="M798-120q-125 0-247-54.5T329-329Q229-429 174.5-551T120-798q0-18 12-30t30-12h162q14 0 25 9.5t13 22.5l26 140q2 16-1 27t-11 19l-97 98q20 37 47.5 71.5T387-386q31 31 65 57.5t72 48.5l94-94q9-9 23.5-13.5T670-390l138 28q14 4 23 14.5t9 23.5v162q0 18-12 30t-30 12ZM241-600l66-66-17-94h-89q5 41 14 81t26 79Zm358 358q39 17 79.5 27t81.5 13v-88l-94-19-67 67ZM241-600Zm358 358Z"/></symbol>
	<symbol id="local_shipping" xmlns="http://www.w3.org/2000/svg" viewBox="0 -960 960 960" fill="currentColor"><path d="M240-160q-50 0-85-35t-35-85H40v-440q0-33 23.5-56.5T120-800h560v160h120l120 160v200h-80q0 50-35 85t-85 35q-50 0-85-35t-35-85H360q0 50-35 85t-85 35Zm0-80q17 0 28.5-11.5T280-280q0-17-11.5-28.5T240-320q-17 0-28.5 11.5T200-280q0 17 11.5 28.5T240-240ZM120-360h32q17-18 39-29t49-11q27 0 49 11t39 29h272v-360H120v360Zm600 120q17 0 28.5-11.5T760-280q0-17-11.5-28.5T720-320q-17 0-28.5 11.5T680-280q0 17 11.5 28.5T720-240Zm-40-200h170l-90-120h-80v120ZM360-540Z"/></symbol>
	<symbol id="pan_zoom" xmlns="http://www.w3.org/2000/svg" viewBox="0 -960 960 960" fill="currentColor"><path d="M120-120v-240h80v104l124-124 56 56-124 124h104v80H120Zm516-460-56-56 124-124H600v-80h240v240h-80v-104L636-580Z"/></symbol>
	<symbol id="share" xmlns="http://www.w3.org/2000/svg" viewBox="0 -960 960 960" fill="currentColor"><path d="M720-80q-50 0-85-35t-35-85q0-7 1-14.5t3-13.5L322-392q-17 15-38 23.5t-44 8.5q-50 0-85-35t-35-85q0-50 35-85t85-35q23 0 44 8.5t38 23.5l282-164q-2-6-3-13.5t-1-14.5q0-50 35-85t85-35q50 0 85 35t35 85q0 50-35 85t-85 35q-23 0-44-8.5T638-672L356-508q2 6 3 13.5t1 14.5q0 7-1 14.5t-3 13.5l282 164q17-15 38-23.5t44-8.5q50 0 85 35t35 85q0 50-35 85t-85 35Zm0-640q17 0 28.5-11.5T760-760q0-17-11.5-28.5T720-800q-17 0-28.5 11.5T680-760q0 17 11.5 28.5T720-720ZM240-440q17 0 28.5-11.5T280-480q0-17-11.5-28.5T240-520q-17 0-28.5 11.5T200-480q0 17 11.5 28.5T240-440Zm480 280q17 0 28.5-11.5T760-200q0-17-11.5-28.5T720-240q-17 0-28.5 11.5T680-200q0 17 11.5 28.5T720-160Zm0-600ZM240-480Zm480 280Z"/></symbol>
	<symbol id="sell" xmlns="http://www.w3.org/2000/svg" viewBox="0 -960 960 960" fill="currentColor"><path d="M856-390 570-104q-12 12-27 18t-30 6q-15 0-30-6t-27-18L103-457q-11-11-17-25.5T80-513v-287q0-33 23.5-56.5T160-880h287q16 0 31 6.5t26 17.5l352 353q12 12 17.5 27t5.5 30q0 15-5.5 29.5T856-390ZM513-160l286-286-353-354H160v286l353 354ZM260-640q25 0 42.5-17.5T320-700q0-25-17.5-42.5T260-760q-25 0-42.5 17.5T200-700q0 25 17.5 42.5T260-640Zm220 160Z"/></symbol>
	<symbol id="check-circle" xmlns="http://www.w3.org/2000/svg" viewBox="0 -960 960 960" fill="currentColor"><path d="m424-296 282-282-56-56-226 226-114-114-56 56 170 170Zm56 216q-83 0-156-31.5T197-197q-54-54-85.5-127T80-480q0-83 31.5-156T197-763q54-54 127-85.5T480-880q83 0 156 31.5T763-763q54 54 85.5 127T880-480q0 83-31.5 156T763-197q-54 54-127 85.5T480-80Zm0-80q134 0 227-93t93-227q0-134-93-227t-227-93q-134 0-227 93t-93 227q0 134 93 227t227 93Zm0-320Z"/></symbol>
	<symbol id="error" xmlns="http://www.w3.org/2000/svg" viewBox="0 -960 960 960" fill="currentColor"><path d="M480-280q17 0 28.5-11.5T520-320q0-17-11.5-28.5T480-360q-17 0-28.5 11.5T440-320q0 17 11.5 28.5T480-280Zm-40-160h80v-240h-80v240Zm40 360q-83 0-156-31.5T197-197q-54-54-85.5-127T80-480q0-83 31.5-156T197-763q54-54 127-85.5T480-880q83 0 156 31.5T763-763q54 54 85.5 127T880-480q0 83-31.5 156T763-197q-54 54-127 85.5T480-80Zm0-80q134 0 227-93t93-227q0-134-93-227t-227-93q-134 0-227 93t-93 227q0 134 93 227t227 93Zm0-320Z"/></symbol>
	<symbol id="trash" xmlns="http://www.w3.org/2000/svg" viewBox="0 -960 960 960" fill="currentColor"><path d="M280-120q-33 0-56.5-23.5T200-200v-520h-40v-80h200v-40h240v40h200v80h-40v520q0 33-23.5 56.5T680-120H280Zm400-600H280v520h400v-520ZM360-280h80v-360h-80v360Zm160 0h80v-360h-80v360ZM280-720v520-520Z"/></symbol>
	<symbol id="grid3" viewBox="0 0 25 17" fill="none" xmlns="http://www.w3.org/2000/svg"><rect y="0.802734" width="7" height="7" fill="currentColor"/><rect y="9.80273" width="7" height="7" fill="currentColor"/><rect x="9" y="0.802734" width="7" height="7" fill="currentColor"/><rect x="18" y="0.802734" width="7" height="7" fill="currentColor"/><rect x="9" y="9.80273" width="7" height="7" fill="currentColor"/><rect x="18" y="9.80273" width="7" height="7" fill="currentColor"/></symbol>
	<symbol id="grid4" viewBox="0 0 34 16" fill="none" xmlns="http://www.w3.org/2000/svg"><rect width="7" height="7" fill="currentColor"/><rect y="9" width="7" height="7" fill="currentColor"/><rect x="9" width="7" height="7" fill="currentColor"/><rect x="18" width="7" height="7" fill="currentColor"/><rect x="27" width="7" height="7" fill="currentColor"/><rect x="9" y="9" width="7" height="7" fill="currentColor"/><rect x="18" y="9" width="7" height="7" fill="currentColor"/><rect x="27" y="9" width="7" height="7" fill="currentColor"/></symbol>
	<symbol id="grid2" viewBox="0 0 16 17" fill="none" xmlns="http://www.w3.org/2000/svg"><rect y="0.802734" width="7" height="7" fill="currentColor"/><rect y="9.80273" width="7" height="7" fill="currentColor"/><rect x="9" y="0.802734" width="7" height="7" fill="currentColor"/><rect x="9" y="9.80273" width="7" height="7" fill="currentColor"/></symbol>
	<symbol id="logo" xmlns="http://www.w3.org/2000/svg" version="1.1" viewBox="0 0 2191.3 713.4"><defs>
<style>
      .st0 {
        fill: #dfa471;
      }

      .st1 {
        fill: #727176;
      }
    </style></defs><path class="st1" d="M232.6,224.6l-108.4,238.6h25.4l30.3-67.4h128.1l30.7,67.4h25l-108.4-238.6h-22.7,0ZM297.6,373h-107.4l53.7-118.2,53.7,118.2Z"/><path class="st1" d="M379.3,377.3v86h22.8v-86c0-43.3,23.1-66.1,66.8-66.1h2.6v-23.2h-2.6c-57,0-89.6,32.6-89.6,89.3Z"/><path class="st1" d="M577.2,288c-49.4,0-85.3,37.6-85.3,89.3s35.6,89.3,84.6,89.3,70-23.2,81.5-60.5l1-3.3h-24.3l-.6,1.7c-8.8,25.1-30.9,40.6-57.6,40.6s-57.3-23.7-60.6-59.2h144.6l.3-2.3c.3-2.5.7-6.4.7-9,0-50.2-35.4-86.6-84.3-86.6h0ZM577.2,309.2c34,0,58.9,24.3,61.3,59.5h-122.6c3.3-36.3,27-59.5,61.3-59.5Z"/><path class="st1" d="M770.9,288c-44.3,0-77.6,38.4-77.6,89.3v86h22.8v-86c0-38.3,23-66.1,54.8-66.1s54.1,27.8,54.1,66.1v86h23.2v-86c0-24.7-7.8-47.3-21.8-63.7-14.2-16.5-33.9-25.6-55.4-25.6h0Z"/><path class="st1" d="M1026.2,313.7c-15.4-16.5-37.3-25.7-61.6-25.7-49,0-84.6,37.6-84.6,89.3s8.5,46.9,23.8,63.5c15.4,16.6,36.3,25.8,58.8,25.8s48.7-12.3,63.8-33.4v30.1h23.2v-86c0-24.8-8.3-47.4-23.4-63.6h0ZM1026.3,377.3c0,37.7-26.6,66.1-61.8,66.1s-61.4-28.4-61.4-66.1,21.1-66.1,61.4-66.1,61.8,34.3,61.8,66.1Z"/><path class="st0" d="M1190.7,244.5c40.7,0,77.8,27,88.2,64.1l.5,1.9h23.9l-.8-3.2c-12.4-50.6-58.3-86-111.6-86s-116.3,51.6-116.3,122.6,48.9,122.7,116.3,122.7,99.2-35.4,111.6-86l.8-3.2h-23.9l-.5,1.9c-10.5,37.2-47.5,64.1-87.9,64.1s-93.1-41.8-93.1-99.5,39-99.5,92.8-99.5Z"/><path class="st0" d="M1408.7,288c-49.4,0-85.3,37.6-85.3,89.3s35.6,89.3,84.6,89.3,70-23.2,81.5-60.5l1-3.3h-24.3l-.6,1.7c-8.8,25.1-30.9,40.6-57.6,40.6s-57.3-23.7-60.6-59.2h144.6l.3-2.3c.3-2.5.7-6.4.7-9,0-50.2-35.4-86.6-84.3-86.6h0ZM1347.4,368.7c3.3-35.7,27.6-59.5,61.2-59.5s58.9,24.3,61.3,59.5h-122.6,0Z"/><path class="st0" d="M1602.3,288c-44.3,0-77.6,38.4-77.6,89.3v86h22.8v-86c0-38.3,23-66.1,54.8-66.1s54.1,27.8,54.1,66.1v86h23.2v-86c0-24.7-7.8-47.3-21.8-63.7-14.2-16.5-33.9-25.6-55.4-25.6h0Z"/><path class="st0" d="M1730.2,252h-23.2v142c0,46.8,26.4,72.6,74.3,72.6h2.6v-22.5h-2.6c-34.4,0-51.1-16.4-51.1-50.1v-79.5h53.7v-23.2h-53.7v-39.4h0Z"/><path class="st0" d="M1894.3,288c-49.4,0-85.3,37.6-85.3,89.3s35.6,89.3,84.6,89.3,70-23.2,81.5-60.5l1-3.3h-24.3l-.6,1.7c-8.8,25.1-30.9,40.6-57.6,40.6s-57.3-23.7-60.6-59.2h144.6l.3-2.3c.3-2.5.7-6.4.7-9,0-50.2-35.4-86.6-84.3-86.6h0ZM1833.1,368.7c3.3-35.7,27.6-59.5,61.2-59.5s58.9,24.3,61.3,59.5h-122.6,0Z"/><path class="st0" d="M2100,288c-57,0-89.6,32.6-89.6,89.3v86h22.8v-86c0-43.3,23.1-66.1,66.8-66.1h2.6v-23.2h-2.6Z"/></symbol>
</svg>
